<svg id="Icons" height="512" viewBox="0 0 74 74" width="512" xmlns="http://www.w3.org/2000/svg"><path d="m56.834 72.253h-40.621a2.267 2.267 0 0 1 -2.264-2.264v-42.64a14.6 14.6 0 0 1 14.582-14.582h15.985a14.6 14.6 0 0 1 14.584 14.582v42.64a2.267 2.267 0 0 1 -2.266 2.264zm-28.3-57.486a12.6 12.6 0 0 0 -12.585 12.582v42.64a.264.264 0 0 0 .264.264h40.621a.264.264 0 0 0 .264-.264v-42.64a12.6 12.6 0 0 0 -12.582-12.582z"/><path d="m64.653 70.9h-7.553v-22.366h3.73a5.859 5.859 0 0 1 5.853 5.853v14.479a2.031 2.031 0 0 1 -2.03 2.034zm-5.556-2h5.556l.029-14.508a3.857 3.857 0 0 0 -3.853-3.853h-1.729z"/><path d="m15.949 70.9h-7.555a2.031 2.031 0 0 1 -2.029-2.029v-14.484a5.859 5.859 0 0 1 5.853-5.853h3.732zm-3.732-20.366a3.857 3.857 0 0 0 -3.853 3.853v14.479l5.585.025v-18.357z"/><path d="m52.158 72.253h-31.32v-17.662a2.734 2.734 0 0 1 2.73-2.731h25.86a2.734 2.734 0 0 1 2.73 2.731zm-29.32-2h27.32v-15.662a.732.732 0 0 0 -.73-.731h-25.86a.732.732 0 0 0 -.73.731z"/><path d="m45.729 59.222h-18.461a1 1 0 0 1 0-2h18.461a1 1 0 1 1 0 2z"/><path d="m42.81 61.869a1 1 0 0 1 -1-1v-2.647a1 1 0 0 1 2 0v2.647a1 1 0 0 1 -1 1z"/><path d="m47.038 39.064h-5.925a1 1 0 0 1 0-2h5.925a7.526 7.526 0 0 0 5.91-2.843l4.368-5.468a1 1 0 0 1 1.563 1.247l-4.368 5.468a9.514 9.514 0 0 1 -7.473 3.596z"/><path d="m31.934 39.064h-5.925a9.514 9.514 0 0 1 -7.473-3.595l-4.368-5.469a1 1 0 0 1 1.563-1.248l4.369 5.469a7.526 7.526 0 0 0 5.91 2.843h5.925a1 1 0 0 1 0 2z"/><path d="m39.9 42.8h-6.749a1.974 1.974 0 0 1 -1.972-1.971v-5.764a1.974 1.974 0 0 1 1.972-1.971h6.749a1.974 1.974 0 0 1 1.972 1.971v5.761a1.974 1.974 0 0 1 -1.972 1.974zm-6.716-7.7v5.732l6.716-.032-.028-5.732z"/><path d="m42.79 14.767h-12.533a1 1 0 0 1 -1-1v-4.252a2.044 2.044 0 0 1 2.043-2.042h10.448a2.044 2.044 0 0 1 2.042 2.042v4.252a1 1 0 0 1 -1 1zm-11.533-2h10.533v-3.252l-10.49-.042-.042.042z"/><path d="m54.873 19.55a1 1 0 0 1 -.967-1.26l3.052-11.37a1.172 1.172 0 0 0 -.838-1.436l-4.45-1.193a1.172 1.172 0 0 0 -1.437.837l-2.433 9.087a1 1 0 1 1 -1.93-.515l2.43-9.091a3.187 3.187 0 0 1 3.88-2.251l4.458 1.2a3.2 3.2 0 0 1 2.251 3.879l-3.051 11.372a1 1 0 0 1 -.965.741z"/><path d="m18.174 19.55a1 1 0 0 1 -.965-.741l-3.052-11.37a3.2 3.2 0 0 1 2.243-3.885l4.456-1.195a3.193 3.193 0 0 1 3.884 2.247l2.437 9.094a1 1 0 1 1 -1.932.517l-2.432-9.092a1.17 1.17 0 0 0 -1.44-.833l-4.449 1.193a1.172 1.172 0 0 0 -.833 1.442l3.05 11.363a1 1 0 0 1 -.707 1.225 1.011 1.011 0 0 1 -.26.035z"/></svg>