<svg id="Capa_1" enable-background="new 0 0 512 512" height="512" viewBox="0 0 512 512" width="512" xmlns="http://www.w3.org/2000/svg"><g><path d="m502 382.895v-41.495c0-18.177-10.493-33.94-25.734-41.578v-87.066c0-29.441-23.952-53.394-53.393-53.394h-333.746c-29.441 0-53.394 23.952-53.394 53.394v87.066c-15.24 7.638-25.733 23.401-25.733 41.578v41.494c-5.523 0-10 4.478-10 10v53.107c0 5.522 4.477 10 10 10h27.489v34.489c0 5.522 4.477 10 10 10h76.404c5.523 0 10-4.478 10-10v-34.489h244.213v34.489c0 5.522 4.477 10 10 10h76.404c5.523 0 10-4.478 10-10v-34.489h27.49c5.523 0 10-4.478 10-10v-53.107c0-5.522-4.477-9.999-10-9.999zm-446.266-87.979v-82.159c0-18.413 14.981-33.394 33.394-33.394h333.745c18.413 0 33.394 14.98 33.394 33.394v82.159h-31.777v-76.684c0-5.522-4.477-10-10-10h-128.827c-5.523 0-10 4.478-10 10v76.684h-39.325v-76.684c0-5.522-4.477-10-10-10h-128.827c-5.523 0-10 4.478-10 10v76.684zm348.755 0h-108.826v-66.684h108.827v66.684zm-188.152 0h-108.826v-66.684h108.827v66.684zm-186.337 46.484c0-14.603 11.88-26.484 26.484-26.484h399.032c14.603 0 26.484 11.881 26.484 26.484v41.494h-452zm83.894 139.09h-56.405v-24.489h56.404v24.489zm340.617 0h-56.404v-24.489h56.404zm37.489-44.489h-472v-33.107h472z"/><path d="m187.321 130.136c1.749 3.226 5.123 5.235 8.792 5.235h38.141c5.523 0 10-4.477 10-10s-4.477-10-10-10h-19.69l27.18-41.715c2.003-3.074 2.162-6.998.414-10.224-1.749-3.226-5.123-5.235-8.792-5.235h-36.081c-5.523 0-10 4.478-10 10s4.477 10 10 10h17.629l-27.18 41.715c-2.003 3.074-2.161 6.998-.413 10.224z"/><path d="m251.3 103.707c1.728 3.29 5.137 5.351 8.854 5.351h55.733c5.523 0 10-4.478 10-10s-4.477-10-10-10h-36.689l42.669-61.87c2.11-3.06 2.349-7.036.622-10.327-1.728-3.29-5.137-5.351-8.853-5.351h-52.074c-5.523 0-10 4.477-10 10 0 5.522 4.477 10 10 10h33.03l-42.669 61.87c-2.111 3.059-2.351 7.036-.623 10.327z"/></g></svg>